<svg id="visual" viewBox="0 0 900 450" width="900" height="450" xmlns="http://www.w3.org/2000/svg" xmlns:xlink="http://www.w3.org/1999/xlink" version="1.1"><path d="M0 338L21.5 340.3C43 342.7 86 347.3 128.8 354.3C171.7 361.3 214.3 370.7 257.2 369.3C300 368 343 356 385.8 342C428.7 328 471.3 312 514.2 313.2C557 314.3 600 332.7 642.8 333.8C685.7 335 728.3 319 771.2 321.3C814 323.7 857 344.3 878.5 354.7L900 365L900 451L878.5 451C857 451 814 451 771.2 451C728.3 451 685.7 451 642.8 451C600 451 557 451 514.2 451C471.3 451 428.7 451 385.8 451C343 451 300 451 257.2 451C214.3 451 171.7 451 128.8 451C86 451 43 451 21.5 451L0 451Z" fill="#fec3a6" stroke-linecap="round" stroke-linejoin="miter"></path></svg>